# xmcd
# 
# Track frame offsets:
#     150
#     30250
#     46920
#     108422
#     125182
#     144942
#     162955
#     183075
# 
# Disc length: 2793
# 
# Revision: 6
# Processed by: cddbd v1.5.2PL0 Copyright (c) Steve Scherf et al.
# Submitted via: BonkEnc v1.0.8
# 
DISCID=600ae708
DTITLE=Jimi Hendrix - Live At Woodstock [CD 2]
DYEAR=1999
DGENRE=Rock
TTITLE0=Izabella
TTITLE1=Fire
TTITLE2=Voodoo Child (Slight Return)
TTITLE3=Star Spangled Banner
TTITLE4=Purple Haze
TTITLE5=Woodstock Improvisation
TTITLE6=Villanova Junction
TTITLE7=Hey Joe
EXTD=
EXTT0=
EXTT1=
EXTT2=
EXTT3=
EXTT4=
EXTT5=
EXTT6=
EXTT7=
PLAYORDER=
